<svg width="125" height="32" viewBox="0 0 125 32" fill="none" xmlns="http://www.w3.org/2000/svg">
<path d="M42.1096 31.0823C41.334 31.082 40.5667 30.9232 39.8547 30.6156C39.1428 30.3079 38.5012 29.858 37.9695 29.2934C35.8279 27.0223 31.154 23.2114 23.9207 23.2114C16.7117 23.2114 12.0737 27.0037 9.94995 29.2598C9.24502 30.0125 8.34866 30.5592 7.35683 30.8416C6.36501 31.1239 5.31507 31.1312 4.31943 30.8626L4.20352 30.8311C3.24124 30.5709 2.36425 30.0624 1.66038 29.3565C0.956517 28.6506 0.450502 27.7722 0.193027 26.8092C-0.0644476 25.8461 -0.0643406 24.8324 0.193338 23.8694C0.451016 22.9065 0.957217 22.0281 1.66123 21.3224L22.353 0.628494C22.7555 0.22607 23.3014 0 23.8706 0C24.4398 0 24.9857 0.22607 25.3883 0.628494L46.1316 21.3711C46.8404 22.08 47.3492 22.9637 47.6067 23.9326C47.8641 24.9014 47.8609 25.9211 47.5975 26.8884C47.3341 27.8557 46.8198 28.7362 46.1066 29.4407C45.3934 30.1453 44.5067 30.6489 43.5363 30.9005C43.0703 31.0212 42.5909 31.0823 42.1096 31.0823ZM23.9207 18.9218C32.7654 18.9218 38.4761 23.5728 41.0935 26.3497C41.265 26.5318 41.4822 26.6646 41.7225 26.7341C41.9627 26.8035 42.2173 26.8072 42.4595 26.7447C42.6976 26.6831 42.9152 26.5596 43.0902 26.3868C43.2652 26.214 43.3915 25.998 43.4561 25.7607C43.5208 25.5233 43.5215 25.2731 43.4583 25.0354C43.3952 24.7977 43.2702 24.5809 43.0963 24.4071L24.0381 5.34958C24.0161 5.32751 23.99 5.31 23.9613 5.29805C23.9326 5.2861 23.9018 5.27995 23.8706 5.27995C23.8395 5.27995 23.8087 5.2861 23.78 5.29805C23.7512 5.31 23.7251 5.32751 23.7032 5.34958L4.69723 24.3555C4.52408 24.5285 4.39949 24.744 4.33598 24.9804C4.27247 25.2167 4.27229 25.4656 4.33545 25.7021C4.3986 25.9385 4.52288 26.1542 4.69578 26.3274C4.86868 26.5006 5.08412 26.6253 5.32046 26.6889L5.43638 26.7204C5.68183 26.7858 5.94046 26.7833 6.18459 26.7131C6.42873 26.6429 6.64918 26.5077 6.82236 26.3218C9.42046 23.5584 15.0968 18.9218 23.9207 18.9218Z" fill="#F25824"/>
<path d="M62.2286 7.45581V13.9743C62.2286 16.6784 60.8518 18.0308 58.0982 18.0314C57.3904 18.0357 56.6855 17.9421 56.0033 17.7531C55.4076 17.5977 54.8505 17.32 54.3672 16.9376L55.1709 15.5858C55.5495 15.8858 55.9809 16.1117 56.4426 16.252C56.9449 16.4182 57.4703 16.5031 57.9992 16.5034C58.8408 16.5034 59.4574 16.3116 59.8489 15.9282C60.2405 15.5447 60.4362 14.9596 60.4362 14.1728V13.7693C60.1274 14.1069 59.7447 14.368 59.3181 14.5319C58.8555 14.7089 58.3638 14.797 57.8688 14.7917C57.1834 14.8025 56.5061 14.6431 55.897 14.3278C55.3214 14.0266 54.8409 13.5704 54.5097 13.0103C54.1756 12.4192 54 11.7513 54 11.0718C54 10.3923 54.1756 9.72435 54.5097 9.13321C54.8424 8.57905 55.3229 8.12918 55.897 7.83434C56.5068 7.52096 57.1837 7.36171 57.8688 7.37046C58.3866 7.36497 58.9006 7.45947 59.3828 7.64879C59.828 7.82445 60.2207 8.11199 60.5232 8.48378V7.46324L62.2286 7.45581ZM59.8138 12.6578C60.2454 12.2496 60.463 11.7195 60.4667 11.0676C60.4704 10.4157 60.2528 9.89274 59.8138 9.49875C59.3785 9.0961 58.8214 8.89478 58.1425 8.89478C57.4544 8.89478 56.8927 9.0961 56.4574 9.49875C56.0221 9.9014 55.8045 10.4243 55.8045 11.0676C55.8045 11.7195 56.0221 12.2496 56.4574 12.6578C56.8927 13.066 57.4544 13.2698 58.1425 13.2692C58.8214 13.2692 59.3785 13.0654 59.8138 12.6578Z" fill="#F25824"/>
<path d="M72.0314 7.44327V15.1411H70.3158V14.1613C70.0238 14.5098 69.6532 14.7841 69.2344 14.9617C68.7923 15.1503 68.3158 15.2453 67.835 15.2405C66.8066 15.2405 65.9968 14.9548 65.4054 14.3835C64.814 13.8121 64.5183 12.9637 64.5183 11.8383V7.44141H66.3213V11.5938C66.3213 12.2854 66.4762 12.802 66.7862 13.1434C67.0961 13.4849 67.5409 13.6553 68.1205 13.6547C68.764 13.6547 69.2757 13.4554 69.6557 13.057C70.0357 12.6585 70.2257 12.084 70.2257 11.3335V7.44327H72.0314Z" fill="#F25824"/>
<path d="M81.9058 4.44V15.1399H80.1802V14.1449C79.8875 14.5068 79.5091 14.7894 79.0795 14.9669C78.6209 15.1535 78.1297 15.2465 77.6348 15.2403C76.9399 15.2513 76.254 15.0826 75.6431 14.7503C75.0563 14.4279 74.5736 13.9439 74.2522 13.3555C73.9214 12.7174 73.7487 12.0089 73.7487 11.2898C73.7487 10.5707 73.9214 9.86216 74.2522 9.22412C74.5762 8.64021 75.0584 8.16018 75.6431 7.83956C76.2541 7.50769 76.94 7.33894 77.6348 7.34952C78.1109 7.34422 78.5834 7.43236 79.0257 7.60896C79.4425 7.77792 79.8124 8.04522 80.1041 8.38818V4.43628L81.9058 4.44ZM79.0146 13.4029C79.3611 13.2042 79.6452 12.912 79.8343 12.5595C80.0324 12.1659 80.1356 11.7312 80.1356 11.2903C80.1356 10.8494 80.0324 10.4146 79.8343 10.021C79.6452 9.6685 79.3611 9.37629 79.0146 9.17763C78.6568 8.98353 78.2563 8.88188 77.8495 8.88188C77.4427 8.88188 77.0422 8.98353 76.6844 9.17763C76.3362 9.37713 76.0511 9.67106 75.8619 10.0257C75.6638 10.4193 75.5606 10.854 75.5606 11.2949C75.5606 11.7358 75.6638 12.1706 75.8619 12.5642C76.0511 12.9167 76.3351 13.2089 76.6816 13.4076C77.0394 13.6017 77.4399 13.7033 77.8467 13.7033C78.2535 13.7033 78.654 13.6017 79.0118 13.4076L79.0146 13.4029Z" fill="#F25824"/>
<path d="M89.7412 8.181C90.3373 8.724 90.6353 9.54158 90.6353 10.6338V15.1385H88.9468V14.2044C88.717 14.5484 88.3907 14.8161 88.0093 14.9734C87.5437 15.1626 87.0443 15.2532 86.5422 15.2396C86.0263 15.251 85.5139 15.1504 85.0401 14.9446C84.6381 14.7714 84.2931 14.4871 84.0454 14.1246C83.8115 13.774 83.6892 13.3602 83.6948 12.9381C83.6948 12.2473 83.9501 11.6935 84.4607 11.2766C84.9712 10.8598 85.7749 10.6511 86.8716 10.6505H88.8462V10.5354C88.8462 9.99862 88.6866 9.58611 88.3673 9.29791C88.0481 9.00972 87.5735 8.86593 86.9436 8.86655C86.5134 8.86647 86.0859 8.9344 85.6768 9.06785C85.2936 9.18529 84.9364 9.37584 84.6249 9.62909L83.9237 8.32015C84.3577 7.99664 84.8481 7.75752 85.3695 7.61512C85.9511 7.44926 86.5531 7.36681 87.1577 7.37022C88.2834 7.37022 89.1445 7.64048 89.7412 8.181ZM88.1099 13.6199C88.4518 13.4214 88.7131 13.108 88.8481 12.7349V11.8425H87.0027C85.9717 11.8425 85.4565 12.1827 85.4572 12.863C85.4526 13.0145 85.4854 13.1648 85.5527 13.3005C85.62 13.4361 85.7197 13.5529 85.8428 13.6403C86.1012 13.8324 86.4583 13.9279 86.9169 13.9279C87.3347 13.936 87.747 13.8302 88.1099 13.6218V13.6199Z" fill="#F25824"/>
<path d="M99.6384 8.21891C100.219 8.78148 100.509 9.61579 100.51 10.7219V15.0979H98.7239V10.9478C98.7239 10.2807 98.5668 9.7778 98.2524 9.43903C97.938 9.10027 97.4908 8.93088 96.9106 8.93088C96.253 8.93088 95.7339 9.12885 95.3533 9.5248C94.9726 9.92075 94.7823 10.4904 94.7823 11.2337V15.0979H92.9966V7.46084H94.6966V8.44763C94.9954 8.09208 95.3781 7.81691 95.81 7.64713C96.2921 7.45763 96.8063 7.36366 97.3241 7.37046C98.2856 7.37354 99.057 7.65635 99.6384 8.21891Z" fill="#F25824"/>
<path d="M110.456 7.45582V13.9743C110.456 16.6784 109.079 18.0308 106.326 18.0314C105.619 18.0358 104.915 17.9421 104.233 17.7531C103.637 17.598 103.081 17.3203 102.598 16.9376L103.4 15.5858C103.777 15.8851 104.207 16.1111 104.667 16.252C105.169 16.4182 105.694 16.5031 106.222 16.5034C107.062 16.5034 107.679 16.3116 108.071 15.9282C108.464 15.5447 108.66 14.9596 108.659 14.1728V13.7693C108.351 14.1069 107.968 14.368 107.542 14.5319C107.079 14.7089 106.588 14.797 106.093 14.7917C105.408 14.8026 104.731 14.6432 104.122 14.3278C103.547 14.0262 103.067 13.5701 102.735 13.0103C102.402 12.419 102.227 11.7512 102.227 11.0718C102.227 10.3924 102.402 9.72456 102.735 9.13322C103.068 8.57934 103.549 8.12955 104.122 7.83435C104.732 7.52086 105.408 7.36161 106.093 7.37047C106.61 7.36489 107.124 7.45939 107.605 7.6488C108.05 7.82446 108.443 8.112 108.745 8.48378V7.46324L110.456 7.45582ZM108.04 12.6578C108.471 12.2496 108.687 11.7195 108.687 11.0676C108.687 10.4157 108.471 9.89275 108.04 9.49876C107.604 9.09611 107.047 8.89478 106.369 8.89478C105.68 8.89478 105.119 9.09611 104.684 9.49876C104.25 9.90141 104.034 10.4244 104.037 11.0676C104.037 11.7195 104.253 12.2496 104.684 12.6578C105.116 13.066 105.677 13.2698 106.369 13.2692C107.045 13.2692 107.601 13.0654 108.036 12.6578H108.04Z" fill="#F25824"/>
<path d="M112.932 5.85358C112.828 5.75464 112.745 5.63543 112.688 5.50323C112.631 5.37104 112.602 5.22863 112.602 5.08472C112.602 4.9408 112.631 4.7984 112.688 4.6662C112.745 4.53401 112.828 4.41479 112.932 4.31585C113.153 4.10953 113.445 3.99873 113.747 4.00738C114.046 3.99832 114.337 4.1036 114.562 4.30195C114.668 4.39332 114.753 4.50719 114.81 4.63534C114.867 4.76349 114.895 4.90273 114.892 5.04303C114.895 5.19088 114.868 5.33788 114.813 5.47491C114.758 5.61195 114.675 5.7361 114.57 5.83969C114.462 5.94711 114.333 6.03121 114.192 6.08681C114.05 6.14241 113.899 6.16833 113.747 6.16298C113.445 6.17137 113.152 6.06024 112.932 5.85358ZM112.846 7.42837H114.634V15.0976H112.846V7.42837Z" fill="#F25824"/>
<path d="M123.671 8.21891C124.257 8.78148 124.551 9.61579 124.552 10.7219V15.0979H122.749V10.9478C122.749 10.2807 122.59 9.7778 122.273 9.43903C121.955 9.10027 121.504 8.93088 120.917 8.93088C120.255 8.93088 119.731 9.12885 119.346 9.5248C118.961 9.92075 118.769 10.4904 118.769 11.2337V15.0979H116.967V7.46084H118.682V8.44763C118.984 8.09227 119.371 7.81715 119.807 7.64713C120.294 7.45763 120.813 7.36366 121.336 7.37046C122.306 7.37354 123.085 7.65635 123.671 8.21891Z" fill="#F25824"/>
<path d="M55.4067 26.7571C54.9795 26.5282 54.6229 26.1853 54.3761 25.766C54.1296 25.3282 54 24.8336 54 24.3303C54 23.827 54.1296 23.3323 54.3761 22.8946C54.6242 22.4736 54.9819 22.129 55.4104 21.898C55.8626 21.6546 56.3687 21.5306 56.8813 21.5376C57.2954 21.5326 57.7063 21.6116 58.0894 21.7701C58.4436 21.92 58.7584 22.1508 59.0087 22.4444L58.3652 23.0567C58.1847 22.8528 57.9628 22.6906 57.7146 22.5809C57.4663 22.4713 57.1974 22.4168 56.9264 22.4213C56.5804 22.4155 56.2387 22.4997 55.9344 22.6658C55.6475 22.8226 55.4102 23.0576 55.2495 23.3438C55.0877 23.6463 55.0031 23.9844 55.0031 24.328C55.0031 24.6715 55.0877 25.0097 55.2495 25.3121C55.4099 25.5985 55.6473 25.8335 55.9344 25.9901C56.2387 26.1562 56.5804 26.2404 56.9264 26.2347C57.1981 26.239 57.4675 26.1837 57.716 26.0728C57.9644 25.9618 58.1859 25.7977 58.3652 25.5918L59.0087 26.2115C58.7564 26.5066 58.4386 26.7376 58.0811 26.8858C57.6967 27.0441 57.2847 27.1232 56.8694 27.1183C56.3594 27.1237 55.8564 26.9994 55.4067 26.7571Z" fill="#866810"/>
<path d="M59.939 21.3228H60.8692V27.047H59.939V21.3228Z" fill="#866810"/>
<path d="M62.8755 26.844C62.5455 26.669 62.2712 26.4037 62.0844 26.0786C61.8974 25.7394 61.7993 25.3579 61.7993 24.9699C61.7993 24.582 61.8974 24.2005 62.0844 23.8613C62.2722 23.5382 62.5463 23.2746 62.8755 23.1006C63.2296 22.9199 63.621 22.8257 64.0179 22.8257C64.4149 22.8257 64.8063 22.9199 65.1603 23.1006C65.4892 23.2752 65.7631 23.5386 65.9514 23.8613C66.1378 24.2007 66.2356 24.5821 66.2356 24.9699C66.2356 25.3577 66.1378 25.7392 65.9514 26.0786C65.7641 26.4033 65.49 26.6685 65.1603 26.844C64.8063 27.0247 64.4149 27.1189 64.0179 27.1189C63.621 27.1189 63.2296 27.0247 62.8755 26.844ZM64.9022 25.9182C65.1288 25.6544 65.2535 25.3173 65.2535 24.9685C65.2535 24.6198 65.1288 24.2827 64.9022 24.0188C64.7872 23.9 64.6488 23.8065 64.4959 23.7443C64.3431 23.6821 64.179 23.6526 64.0142 23.6577C63.8498 23.6523 63.686 23.6816 63.5336 23.7438C63.3811 23.806 63.2433 23.8997 63.129 24.0188C62.9047 24.2838 62.7815 24.6205 62.7815 24.9685C62.7815 25.3166 62.9047 25.6533 63.129 25.9182C63.2434 26.0372 63.3813 26.1307 63.5337 26.1929C63.6861 26.2551 63.8498 26.2845 64.0142 26.2793C64.179 26.2842 64.343 26.2546 64.4958 26.1924C64.6486 26.1303 64.787 26.0369 64.9022 25.9182Z" fill="#866810"/>
<path d="M71.1728 22.897V27.0635H70.2582V26.5329C70.1022 26.7217 69.9044 26.8703 69.6809 26.9666C69.445 27.0686 69.1909 27.1204 68.9345 27.1186C68.3829 27.1186 67.9509 26.9631 67.6383 26.6523C67.3258 26.3415 67.1683 25.8823 67.1658 25.2749V22.897H68.1274V25.1444C68.1274 25.5174 68.2101 25.7972 68.3774 25.9837C68.5447 26.1702 68.7809 26.2634 69.0889 26.2634C69.2402 26.2709 69.3913 26.246 69.5324 26.1902C69.6735 26.1345 69.8015 26.0492 69.9079 25.9398C70.1102 25.7247 70.2113 25.4139 70.2113 25.0073V22.897H71.1728Z" fill="#866810"/>
<path d="M76.4678 21.3228V27.0619H75.5471V26.5303C75.3904 26.7245 75.1878 26.8761 74.9578 26.9713C74.712 27.0716 74.4488 27.1216 74.1835 27.1183C73.8111 27.1241 73.4436 27.0334 73.1164 26.8548C72.8028 26.6822 72.5447 26.4234 72.3724 26.1088C72.1887 25.7686 72.0961 25.3863 72.1036 24.9994C72.0949 24.6124 72.1876 24.2298 72.3724 23.89C72.5464 23.5783 72.8042 23.3221 73.1164 23.1504C73.4438 22.9726 73.8112 22.8822 74.1835 22.8879C74.439 22.8848 74.6927 22.9319 74.9302 23.0266C75.1534 23.1174 75.3517 23.2607 75.5084 23.4444V21.3228H76.4678ZM74.9191 26.13C75.105 26.0238 75.2572 25.8672 75.3583 25.678C75.4648 25.4669 75.5204 25.2337 75.5204 24.9971C75.5204 24.7605 75.4648 24.5272 75.3583 24.3162C75.257 24.127 75.1048 23.97 74.9191 23.8632C74.7274 23.7595 74.5131 23.7052 74.2953 23.7052C74.0776 23.7052 73.8632 23.7595 73.6716 23.8632C73.4859 23.97 73.3337 24.127 73.2324 24.3162C73.1258 24.5272 73.0703 24.7605 73.0703 24.9971C73.0703 25.2337 73.1258 25.4669 73.2324 25.678C73.3335 25.8672 73.4857 26.0238 73.6716 26.13C73.863 26.2344 74.0775 26.2891 74.2953 26.2891C74.5132 26.2891 74.7276 26.2344 74.9191 26.13Z" fill="#866810"/>
<path d="M87.9162 21.6091L86.1195 27.0472H85.0503L83.7108 23.0232L82.3473 27.0472H81.2707L79.473 21.6091H80.519L81.8687 25.7427L83.2711 21.6091H84.1968L85.5715 25.7705L86.96 21.6138L87.9162 21.6091Z" fill="#866810"/>
<path d="M91.3007 23.2677C91.6209 23.5635 91.7808 24.0095 91.7802 24.6056V27.0628H90.8753V26.5524C90.7525 26.7407 90.5776 26.887 90.373 26.9728C90.1232 27.0758 89.8555 27.1253 89.5864 27.1182C89.3099 27.1245 89.0353 27.0694 88.7815 26.9568C88.5659 26.8621 88.381 26.707 88.2479 26.5093C88.122 26.3183 88.0564 26.0923 88.06 25.8619C88.0543 25.6885 88.0884 25.5161 88.1598 25.3586C88.2311 25.2012 88.3376 25.0631 88.4707 24.9556C88.7439 24.7279 89.1748 24.614 89.7633 24.614H90.8212V24.553C90.8212 24.2597 90.7357 24.0345 90.5646 23.8775C90.3934 23.7205 90.1392 23.642 89.8018 23.642C89.5712 23.6421 89.342 23.6792 89.1225 23.7518C88.9169 23.8155 88.7253 23.9197 88.5587 24.0586L88.1829 23.3437C88.4156 23.1674 88.6782 23.037 88.9575 22.959C89.2694 22.8686 89.5922 22.8237 89.9164 22.8257C90.5209 22.8245 90.9823 22.9718 91.3007 23.2677ZM90.427 26.2353C90.6099 26.1268 90.7495 25.9557 90.8212 25.7521V25.2652H89.8339C89.2839 25.2652 89.0088 25.4509 89.0088 25.8225C89.0065 25.9052 89.0242 25.9872 89.0603 26.0612C89.0965 26.1352 89.15 26.1989 89.216 26.2466C89.3865 26.3607 89.5884 26.4156 89.7917 26.4033C90.015 26.407 90.2352 26.349 90.4289 26.2353H90.427Z" fill="#866810"/>
<path d="M95.4293 22.8257V23.7593C95.3563 23.7442 95.282 23.736 95.2075 23.735C94.8361 23.735 94.5458 23.8458 94.3364 24.0673C94.127 24.2889 94.0226 24.6079 94.0232 25.0243V27.0473H93.0681V22.8724H93.9812V23.482C94.2539 23.0444 94.7366 22.8257 95.4293 22.8257Z" fill="#866810"/>
<path d="M100.061 25.2826H96.8231C96.8709 25.5768 97.0304 25.8401 97.2672 26.0161C97.5272 26.2036 97.8407 26.2989 98.1593 26.2872C98.367 26.294 98.5738 26.257 98.7667 26.1788C98.9596 26.1005 99.1345 25.9825 99.2804 25.8323L99.7976 26.4364C99.6093 26.6638 99.3676 26.8393 99.0948 26.9466C98.747 27.0758 98.3774 27.1333 98.0074 27.1158C97.6375 27.0982 97.2748 27.006 96.9403 26.8444C96.6069 26.6726 96.3292 26.4069 96.1406 26.079C95.9501 25.7413 95.8528 25.3576 95.8589 24.9684C95.8542 24.5823 95.9498 24.2019 96.136 23.8653C96.3144 23.5433 96.578 23.2785 96.8969 23.1008C97.2331 22.9145 97.6111 22.8198 97.994 22.826C98.3677 22.821 98.7364 22.914 99.0643 23.0961C99.3763 23.2742 99.6324 23.5382 99.8031 23.8578C99.9894 24.2055 100.085 24.596 100.08 24.9918C100.08 25.0603 100.071 25.1569 100.061 25.2826ZM97.2054 23.8897C96.9895 24.0792 96.8503 24.3431 96.8147 24.6307H99.1567C99.1256 24.3421 98.9877 24.0763 98.771 23.8871C98.5543 23.6978 98.275 23.5991 97.9894 23.6111C97.7032 23.6029 97.4241 23.7021 97.2054 23.8897Z" fill="#866810"/>
<path d="M104.616 23.3357C104.931 23.6399 105.089 24.0902 105.089 24.6865V27.047H104.12V24.8101C104.12 24.4492 104.034 24.1778 103.864 23.9959C103.693 23.8139 103.45 23.7217 103.135 23.7192C102.778 23.7192 102.496 23.8259 102.289 24.0392C102.082 24.2525 101.979 24.5599 101.98 24.9613V27.0442H101.01V21.3228H101.98V23.4057C102.145 23.2325 102.348 23.099 102.573 23.0157C102.825 22.9231 103.091 22.8775 103.36 22.8811C103.882 22.8811 104.301 23.0326 104.616 23.3357Z" fill="#866810"/>
<path d="M107.095 26.844C106.765 26.6688 106.491 26.4035 106.303 26.0786C106.117 25.7392 106.019 25.3578 106.019 24.9699C106.019 24.5821 106.117 24.2007 106.303 23.8613C106.492 23.5383 106.766 23.2749 107.095 23.1006C107.449 22.9199 107.841 22.8257 108.237 22.8257C108.634 22.8257 109.025 22.9199 109.379 23.1006C109.709 23.2749 109.983 23.5383 110.171 23.8613C110.358 24.2007 110.456 24.5821 110.456 24.9699C110.456 25.3578 110.358 25.7392 110.171 26.0786C109.984 26.4035 109.709 26.6688 109.379 26.844C109.025 27.0247 108.634 27.1189 108.237 27.1189C107.841 27.1189 107.449 27.0247 107.095 26.844ZM109.122 25.9182C109.349 25.6544 109.473 25.3173 109.473 24.9685C109.473 24.6198 109.349 24.2826 109.122 24.0188C109.007 23.8999 108.868 23.8063 108.715 23.7442C108.562 23.682 108.398 23.6526 108.233 23.6577C108.069 23.6524 107.905 23.6817 107.753 23.7439C107.601 23.8061 107.463 23.8998 107.349 24.0188C107.125 24.2838 107.001 24.6204 107.001 24.9685C107.001 25.3166 107.125 25.6533 107.349 25.9182C107.463 26.0371 107.601 26.1306 107.753 26.1928C107.905 26.255 108.069 26.2845 108.233 26.2793C108.398 26.2843 108.562 26.2548 108.715 26.1926C108.868 26.1305 109.007 26.037 109.122 25.9182Z" fill="#866810"/>
<path d="M115.393 22.897V27.0635H114.475V26.5329C114.319 26.7217 114.121 26.8703 113.898 26.9666C113.662 27.0686 113.408 27.1204 113.152 27.1186C112.601 27.1186 112.17 26.9631 111.858 26.6523C111.545 26.3415 111.388 25.8823 111.386 25.2749V22.897H112.346V25.1444C112.346 25.5174 112.429 25.7972 112.596 25.9837C112.763 26.1702 112.999 26.2634 113.307 26.2634C113.458 26.2709 113.609 26.246 113.75 26.1902C113.891 26.1345 114.018 26.0492 114.125 25.9398C114.327 25.7247 114.428 25.4139 114.428 25.0073V22.897H115.393Z" fill="#866810"/>
<path d="M116.953 26.9876C116.678 26.9198 116.417 26.8057 116.18 26.6502L116.553 25.9003C116.761 26.0352 116.988 26.137 117.227 26.2021C117.479 26.2763 117.74 26.3145 118.003 26.3155C118.586 26.3155 118.877 26.1615 118.876 25.8534C118.878 25.7848 118.858 25.7176 118.817 25.6621C118.777 25.6067 118.72 25.5661 118.655 25.5469C118.422 25.4693 118.183 25.4144 117.941 25.3829C117.657 25.3437 117.376 25.2832 117.102 25.2019C116.887 25.1345 116.694 25.0113 116.542 24.8448C116.384 24.6748 116.305 24.4383 116.305 24.1352C116.301 23.9472 116.344 23.7613 116.431 23.5947C116.517 23.428 116.644 23.286 116.8 23.1819C117.13 22.9451 117.576 22.8263 118.137 22.8257C118.426 22.8249 118.714 22.8564 118.996 22.9194C119.242 22.9699 119.479 23.0588 119.698 23.1828L119.325 23.9327C118.962 23.7216 118.549 23.6137 118.13 23.6206C117.905 23.6072 117.68 23.6517 117.477 23.7499C117.412 23.7803 117.357 23.8283 117.318 23.8886C117.279 23.9489 117.257 24.0191 117.255 24.0912C117.254 24.1651 117.276 24.2377 117.319 24.2978C117.362 24.358 117.423 24.4026 117.493 24.4249C117.732 24.5119 117.979 24.5747 118.23 24.6123C118.507 24.6521 118.781 24.7125 119.049 24.7932C119.259 24.8586 119.448 24.9774 119.599 25.1382C119.752 25.3007 119.829 25.5306 119.829 25.8281C119.831 26.015 119.786 26.1993 119.697 26.3634C119.608 26.5276 119.479 26.666 119.322 26.7655C118.984 27.0004 118.524 27.1182 117.941 27.1189C117.607 27.1196 117.275 27.0754 116.953 26.9876Z" fill="#866810"/>
<path d="M124.531 25.2824H121.292C121.339 25.5767 121.499 25.8401 121.736 26.0159C121.996 26.2033 122.31 26.2986 122.629 26.2869C122.836 26.2937 123.043 26.2567 123.236 26.1785C123.429 26.1002 123.604 25.9822 123.75 25.832L124.267 26.436C124.079 26.6635 123.837 26.839 123.564 26.9463C123.216 27.0757 122.846 27.1334 122.476 27.1158C122.105 27.0982 121.742 27.0059 121.407 26.844C121.074 26.6723 120.796 26.4066 120.607 26.0787C120.418 25.7405 120.323 25.3569 120.33 24.9682C120.326 24.5822 120.421 24.2017 120.607 23.8652C120.786 23.5433 121.05 23.2785 121.369 23.1008C121.705 22.9145 122.083 22.8198 122.466 22.826C122.843 22.8196 123.215 22.9127 123.545 23.0961C123.857 23.2742 124.113 23.5382 124.284 23.8577C124.467 24.2064 124.559 24.5967 124.551 24.9916C124.546 25.0601 124.541 25.1567 124.531 25.2824ZM121.674 23.8896C121.458 24.0791 121.319 24.343 121.284 24.6305H123.626C123.595 24.342 123.457 24.0762 123.241 23.887C123.024 23.6977 122.744 23.5991 122.459 23.611C122.172 23.6028 121.893 23.702 121.674 23.8896Z" fill="#866810"/>
</svg>
