<svg width="277" height="64" viewBox="0 0 277 64" fill="none" xmlns="http://www.w3.org/2000/svg">
<path d="M152.865 45.8288C151.905 45.8281 150.955 45.6316 150.074 45.2513C149.193 44.871 148.399 44.3149 147.741 43.6173C145.216 40.9498 139.706 36.4752 131.187 36.4752C122.669 36.4752 117.199 40.9438 114.695 43.6113C112.93 45.49 110.268 46.2365 107.751 45.5616L107.62 45.5256C105.172 44.8685 103.318 43.0148 102.662 40.5683C102.007 38.1218 102.688 35.5932 104.482 33.8026L121.268 17.0583C122.562 15.7666 124.099 14.7419 125.791 14.0428C127.482 13.3437 129.295 12.9839 131.127 12.9839C132.958 12.9839 134.771 13.3437 136.462 14.0428C138.154 14.7419 139.691 15.7666 140.985 17.0583L157.832 33.8627C159.637 35.6635 160.314 38.2048 159.643 40.6614C158.973 43.1181 157.096 44.9658 154.626 45.6048C154.051 45.7533 153.459 45.8285 152.865 45.8288ZM131.186 30.8785C141.811 30.8785 148.674 36.4527 151.821 39.7752C151.992 39.9611 152.21 40.0978 152.453 40.1711C152.695 40.2443 152.953 40.2515 153.199 40.1919C153.443 40.1323 153.666 40.0091 153.847 39.8348C154.027 39.6606 154.158 39.4417 154.226 39.2004C154.294 38.9591 154.296 38.7042 154.232 38.4618C154.169 38.2194 154.042 37.9981 153.865 37.8208L137.018 21.0164C136.244 20.2445 135.326 19.6322 134.315 19.2145C133.304 18.7967 132.221 18.5817 131.127 18.5817C130.032 18.5817 128.949 18.7967 127.938 19.2145C126.927 19.6322 126.009 20.2445 125.235 21.0164L108.449 37.7589C108.274 37.9342 108.147 38.1524 108.083 38.3917C108.018 38.631 108.018 38.883 108.082 39.1224C108.147 39.3617 108.273 39.5801 108.448 39.7555C108.624 39.9309 108.842 40.0571 109.082 40.1216L109.209 40.1559C109.453 40.2264 109.712 40.2289 109.958 40.1632C110.203 40.0974 110.426 39.9659 110.602 39.7829C113.726 36.4557 120.555 30.8785 131.186 30.8785Z" fill="#F47621"/>
<path d="M59.613 16.1201C60.1976 16.1201 60.7583 16.3518 61.1716 16.7641C61.585 17.1765 61.8172 17.7357 61.8172 18.3189V43.155C61.8172 43.7381 61.585 44.2974 61.1716 44.7097C60.7583 45.1221 60.1976 45.3537 59.613 45.3537H56.5629C55.9783 45.3537 55.4176 45.1221 55.0043 44.7097C54.5909 44.2974 54.3587 43.7381 54.3587 43.155V41.6599C53.4065 42.9265 52.1545 43.9285 50.6026 44.6661C49.0865 45.3698 47.429 45.7217 45.6301 45.7217C43.338 45.7217 41.3102 45.2468 39.5468 44.2969C37.7836 43.3118 36.3906 41.8863 35.368 40.0204C34.3807 38.1238 33.8869 35.8737 33.8866 33.27V18.3189C33.8866 17.7357 34.1188 17.1765 34.5322 16.7641C34.9456 16.3518 35.5062 16.1201 36.0908 16.1201H39.0883C39.6729 16.1201 40.2336 16.3518 40.647 16.7641C41.0603 17.1765 41.2926 17.7357 41.2926 18.3189V32.2144C41.2926 34.5364 41.8745 36.3306 43.0384 37.5968C44.2022 38.8281 45.7891 39.4438 47.7991 39.4438C49.8447 39.4438 51.4493 38.8281 52.6129 37.5968C53.7767 36.3303 54.3587 34.5361 54.3587 32.2144V18.3189C54.3587 17.7357 54.5909 17.1765 55.0043 16.7641C55.4176 16.3518 55.9783 16.1201 56.5629 16.1201H59.613Z" fill="#F47621"/>
<path d="M95.1746 6.30542H92.0714C91.4868 6.30542 90.9263 6.53702 90.5129 6.94928C90.0996 7.36154 89.8673 7.9207 89.8672 8.50378V20.1832C88.8448 18.8113 87.4694 17.7209 85.741 16.9119C84.0474 16.0756 82.1825 15.6421 80.2927 15.6455C77.7886 15.6455 75.514 16.261 73.4687 17.492C71.4233 18.723 69.8012 20.482 68.6022 22.7689C67.4384 25.0554 66.8564 27.6762 66.8564 30.6313C66.8564 33.6217 67.4384 36.2778 68.6022 38.5995C69.8009 40.8859 71.423 42.6624 73.4687 43.929C75.5143 45.1955 77.7712 45.8288 80.2396 45.8288C82.4264 45.8288 84.3485 45.389 86.0059 44.5095C87.6632 43.6299 88.9508 42.469 89.8684 41.0269V43.155C89.8684 43.7381 90.1007 44.2974 90.514 44.7097C90.9274 45.1221 91.488 45.3537 92.0726 45.3537H95.1759C95.7604 45.3537 96.3211 45.1221 96.7345 44.7097C97.1478 44.2974 97.3801 43.7381 97.3801 43.155V8.50378C97.38 8.21496 97.3229 7.92898 97.212 7.66218C97.1012 7.39537 96.9387 7.15298 96.7339 6.94883C96.5291 6.74468 96.2859 6.58279 96.0184 6.47239C95.7508 6.36199 95.4641 6.30525 95.1746 6.30542ZM88.862 35.3807C88.1572 36.647 87.2051 37.632 86.0059 38.3357C84.8274 38.9987 83.4962 39.3442 82.1433 39.3383C80.8031 39.3383 79.5336 38.9865 78.3346 38.2828C77.1708 37.5793 76.2186 36.5773 75.478 35.2765C74.7726 33.9394 74.4199 32.3914 74.4199 30.6326C74.4199 28.8737 74.7726 27.3611 75.478 26.0948C76.2186 24.793 77.1708 23.8079 78.3346 23.1394C79.4985 22.471 80.7681 22.1369 82.1433 22.1372C83.503 22.1326 84.8383 22.4973 86.0059 23.1924C87.2045 23.8608 88.1566 24.8458 88.862 26.1474C89.5675 27.4139 89.9202 28.9443 89.9202 30.7384C89.9202 32.5325 89.5675 34.08 88.862 35.3807Z" fill="#F47621"/>
<path d="M181.176 15.698C184.667 15.698 187.489 16.8062 189.64 19.0226C191.79 21.2035 192.866 24.264 192.866 28.2043V43.155C192.866 43.4438 192.809 43.7297 192.698 43.9965C192.587 44.2633 192.425 44.5057 192.22 44.7099C192.015 44.9141 191.772 45.076 191.505 45.1865C191.237 45.297 190.951 45.3538 190.661 45.3538H187.664C187.079 45.3537 186.519 45.122 186.105 44.7096C185.692 44.2973 185.46 43.7381 185.46 43.155V29.2065C185.46 26.8851 184.878 25.1086 183.714 23.877C182.55 22.6108 180.963 21.9776 178.953 21.9776C176.908 21.9776 175.286 22.6108 174.087 23.877C172.923 25.1083 172.341 26.8848 172.341 29.2065V43.155C172.341 43.4438 172.284 43.7297 172.173 43.9965C172.062 44.2633 171.9 44.5057 171.695 44.7099C171.491 44.9141 171.248 45.076 170.98 45.1865C170.713 45.297 170.426 45.3538 170.137 45.3538H167.139C166.555 45.3537 165.994 45.122 165.581 44.7096C165.167 44.2973 164.935 43.7381 164.935 43.155V18.3189C164.935 17.7358 165.167 17.1766 165.581 16.7643C165.994 16.3519 166.555 16.1203 167.139 16.1201H170.137C170.426 16.1201 170.713 16.1769 170.98 16.2874C171.248 16.3979 171.491 16.5598 171.695 16.764C171.9 16.9682 172.062 17.2106 172.173 17.4774C172.284 17.7442 172.341 18.0302 172.341 18.3189V19.7611C173.328 18.4948 174.58 17.5098 176.097 16.8061C177.649 16.0676 179.342 15.6983 181.176 15.698Z" fill="#F47621"/>
<path d="M226.224 16.1202H223.174C222.589 16.1203 222.028 16.352 221.615 16.7643C221.202 17.1766 220.969 17.7358 220.969 18.3189V20.2891C220.017 18.9166 218.713 17.8084 217.056 16.9644C215.398 16.0849 213.476 15.6452 211.289 15.6455C208.785 15.6455 206.51 16.261 204.465 17.492C202.456 18.7233 200.851 20.4823 199.651 22.769C198.487 25.0554 197.906 27.6762 197.906 30.6313C197.906 33.6217 198.487 36.2778 199.651 38.5995C200.85 40.8859 202.472 42.6624 204.518 43.929C206.563 45.1956 208.82 45.8289 211.289 45.8289C213.439 45.8289 215.344 45.3714 217.003 44.4566C218.695 43.542 220.017 42.3988 220.969 41.0269V49.8055C220.969 52.4087 220.3 54.3434 218.96 55.6097C217.62 56.9118 215.875 57.5627 213.723 57.5624C211.889 57.5624 210.32 57.1578 209.015 56.3485C208.263 55.8901 207.665 55.3326 207.222 54.676C206.674 53.8639 205.854 53.1827 204.872 53.1827H201.624C200.316 53.1827 199.272 54.3259 199.66 55.5728C200.356 57.8084 201.693 59.6502 203.671 61.0979C206.353 63.0326 209.774 64 213.935 64C217.038 64 219.683 63.3669 221.87 62.1006C224.055 60.8679 225.695 59.1789 226.788 57.0336C227.882 54.923 228.428 52.5134 228.427 49.8047V18.3189C228.427 17.736 228.195 17.1768 227.782 16.7645C227.369 16.3521 226.809 16.1204 226.224 16.1202ZM219.912 35.3807C219.207 36.647 218.254 37.632 217.055 38.3357C215.877 38.9986 214.546 39.3441 213.193 39.3384C211.853 39.3384 210.584 38.9865 209.385 38.2828C208.222 37.5794 207.27 36.5773 206.529 35.2766C205.823 33.9394 205.47 32.3915 205.468 30.6326C205.466 28.8737 205.819 27.3612 206.529 26.0949C207.269 24.793 208.221 23.8079 209.385 23.1395C210.549 22.471 211.818 22.137 213.193 22.1373C214.552 22.1328 215.888 22.4975 217.055 23.1924C218.255 23.8608 219.207 24.8458 219.912 26.1474C220.617 27.414 220.97 28.9443 220.969 30.7385C220.968 32.5326 220.616 34.08 219.912 35.3807Z" fill="#F47621"/>
<path d="M27.9769 16.3116H24.9633C24.3858 16.3117 23.832 16.5406 23.4237 16.9479C23.0154 17.3553 22.7859 17.9077 22.7858 18.4837V20.4314C21.8452 19.0765 20.5564 17.9817 18.9194 17.147C17.2818 16.2782 15.3827 15.8438 13.2219 15.8438C10.7481 15.8438 8.50092 16.4521 6.48021 17.6687C4.49459 18.8847 2.90995 20.6224 1.72627 22.8817C0.575424 25.1399 0 27.7287 0 30.6479C0 33.6022 0.574859 36.2263 1.72458 38.52C2.90938 40.7782 4.512 42.5334 6.53242 43.7856C8.55284 45.0377 10.7827 45.6633 13.2219 45.6621C15.3473 45.6621 17.2291 45.2105 18.8672 44.3072C20.5387 43.4039 21.8449 42.2748 22.7858 40.9199V49.5927C22.7858 52.1645 22.1242 54.0759 20.801 55.3269C19.477 56.6127 17.7524 57.2557 15.6273 57.256C13.8163 57.256 12.2659 56.8563 10.9761 56.0569C10.2324 55.6053 9.64186 55.0548 9.20439 54.4056C8.6632 53.6003 7.85249 52.9266 6.88217 52.9266H3.67369C2.38121 52.9266 1.3502 54.0563 1.73349 55.288C2.42026 57.4962 3.74132 59.3159 5.69666 60.747C8.34528 62.6586 11.7251 63.6144 15.8361 63.6144C18.9021 63.6144 21.5152 62.9887 23.6755 61.7374C25.8343 60.5214 27.4543 58.8531 28.5355 56.7327C29.6159 54.6478 30.1555 52.2672 30.1544 49.591V18.4837C30.1544 18.1985 30.0982 17.916 29.9888 17.6524C29.8793 17.3889 29.719 17.1494 29.5168 16.9477C29.3145 16.746 29.0745 16.586 28.8103 16.4768C28.5461 16.3677 28.2629 16.3116 27.9769 16.3116ZM21.7416 35.3398C21.0447 36.5911 20.1039 37.5649 18.9194 38.2613C17.7553 38.9165 16.4401 39.258 15.1035 39.2521C13.7784 39.251 12.5244 38.9026 11.3415 38.2071C10.1921 37.5124 9.2515 36.5219 8.51973 35.2356C7.82277 33.9151 7.47401 32.3859 7.47344 30.6479C7.47288 28.91 7.82164 27.4163 8.51973 26.167C9.25122 24.8809 10.1918 23.9071 11.3415 23.2454C12.4913 22.5838 13.7452 22.2535 15.1035 22.2546C16.4468 22.2503 17.7659 22.6108 18.9194 23.2975C20.1039 23.9575 21.0447 24.9306 21.7416 26.2169C22.4386 27.4683 22.7866 28.9801 22.7858 30.7525C22.7849 32.5249 22.4369 34.054 21.7416 35.3398Z" fill="#F47621"/>
<path d="M264.456 15.698C267.948 15.698 270.769 16.8062 272.92 19.0226C275.071 21.2035 276.146 24.264 276.146 28.2043V43.155C276.146 43.4438 276.089 43.7297 275.978 43.9965C275.868 44.2633 275.705 44.5057 275.501 44.7099C275.296 44.9141 275.053 45.076 274.785 45.1865C274.518 45.297 274.231 45.3538 273.942 45.3538H270.944C270.36 45.3537 269.799 45.122 269.386 44.7096C268.973 44.2973 268.74 43.7381 268.74 43.155V29.2065C268.74 26.8851 268.158 25.1086 266.994 23.877C265.83 22.6108 264.244 21.9776 262.234 21.9776C260.188 21.9776 258.566 22.6108 257.367 23.877C256.203 25.1083 255.621 26.8848 255.621 29.2065V43.155C255.621 43.4438 255.564 43.7297 255.454 43.9965C255.343 44.2633 255.181 44.5057 254.976 44.7099C254.771 44.9141 254.528 45.076 254.261 45.1865C253.993 45.297 253.707 45.3538 253.417 45.3538H250.42C249.835 45.3537 249.275 45.122 248.861 44.7096C248.448 44.2973 248.216 43.7381 248.215 43.155V18.3189C248.216 17.7358 248.448 17.1766 248.861 16.7643C249.275 16.3519 249.835 16.1203 250.42 16.1201H253.417C253.707 16.1201 253.993 16.1769 254.261 16.2874C254.528 16.3979 254.771 16.5598 254.976 16.764C255.181 16.9682 255.343 17.2106 255.454 17.4774C255.564 17.7442 255.621 18.0302 255.621 18.3189V19.7611C256.609 18.4948 257.861 17.5098 259.377 16.8061C260.93 16.0676 262.623 15.6983 264.456 15.698Z" fill="#F47621"/>
<path d="M239.225 16.1201C239.515 16.1197 239.802 16.1763 240.069 16.2866C240.337 16.397 240.58 16.5589 240.785 16.7631C240.99 16.9673 241.153 17.2098 241.264 17.4768C241.375 17.7437 241.432 18.0299 241.432 18.3189V43.155C241.432 43.738 241.2 44.2972 240.787 44.7096C240.373 45.1219 239.813 45.3536 239.228 45.3537H236.228C235.939 45.3537 235.652 45.2969 235.385 45.1864C235.117 45.0759 234.874 44.9139 234.67 44.7097C234.465 44.5055 234.303 44.2631 234.192 43.9964C234.081 43.7296 234.024 43.4437 234.024 43.155V18.3189C234.024 18.0302 234.081 17.7443 234.192 17.4775C234.303 17.2107 234.465 16.9683 234.67 16.7642C234.874 16.56 235.117 16.398 235.385 16.2875C235.652 16.177 235.939 16.1201 236.228 16.1201H239.225Z" fill="#F47621"/>
<path fill-rule="evenodd" clip-rule="evenodd" d="M238.323 5.69561e-06C238.069 -0.000456456 237.819 0.0610364 237.595 0.179109L234.197 1.9676C234.17 1.98242 234.143 1.99766 234.117 2.01375L238.195 4.18501L242.405 1.94347L239.051 0.179109C238.827 0.0608185 238.577 -0.00068146 238.323 5.69561e-06ZM243.178 3.13325L238.992 5.36125V9.6864C239.012 9.67709 239.031 9.66777 239.05 9.65761L242.445 7.86954C242.663 7.75534 242.846 7.58629 242.978 7.37923C243.105 7.17858 243.173 6.94629 243.174 6.70897L243.178 3.13325ZM237.49 9.60045V5.41248L233.469 3.27171V6.7077C233.47 6.94499 233.538 7.17722 233.665 7.37796C233.796 7.58502 233.98 7.75407 234.197 7.86827L237.49 9.60045Z" fill="#F47621"/>
</svg>
