<svg width="1179" height="2085" viewBox="0 0 1179 2085" fill="none" xmlns="http://www.w3.org/2000/svg">
<path d="M243.018 1356.71C443.632 1323.05 407.556 1143.62 364.441 1058.1C279.504 900.19 229.254 1010.15 102.971 911.476C-23.3132 812.806 22.7269 956.257 -44.4836 1022.49C-111.694 1088.72 -170.758 887.643 -291.4 1012.41C-412.042 1137.19 -265.686 1420.39 -137.658 1211.72C-9.63036 1003.04 -7.7492 1398.79 243.018 1356.71Z" stroke="#EB6D57" stroke-opacity="0.08" stroke-width="4"/>
<path d="M194.723 1310.52C349.232 1284.52 321.537 1146.46 288.376 1080.68C223.042 959.21 184.292 1043.84 87.0883 967.979C-10.1149 892.114 25.271 1002.48 -26.5199 1053.47C-78.3108 1104.47 -123.699 949.773 -216.666 1045.84C-309.632 1141.91 -197.061 1359.77 -98.3654 1199.13C0.330023 1038.49 1.58678 1343.02 194.723 1310.52Z" stroke="#EB6D57" stroke-opacity="0.08" stroke-width="4"/>
<path d="M287.9 1399.39C531.57 1358.43 487.842 1140.62 435.519 1036.84C332.436 845.179 271.351 978.683 118.022 858.964C-35.3071 739.245 20.541 913.365 -61.1212 993.798C-142.783 1074.23 -214.422 830.166 -361.007 981.69C-507.593 1133.21 -329.974 1476.94 -174.378 1223.56C-18.7809 970.169 -16.6882 1450.59 287.9 1399.39Z" stroke="#EB6D57" stroke-opacity="0.08" stroke-width="4"/>
<path d="M325.401 1435.35C604.793 1388.51 554.506 1138.54 494.438 1019.41C376.106 799.411 306.148 952.57 130.245 815.089C-45.6575 677.608 18.4986 877.451 -75.0913 969.696C-168.681 1061.94 -250.99 781.823 -418.981 955.604C-586.972 1129.38 -383.07 1523.94 -204.812 1233.27C-26.5549 942.609 -23.8391 1493.9 325.401 1435.35Z" stroke="#EB6D57" stroke-opacity="0.08" stroke-width="4"/>
<path d="M379.37 1486.5C710.678 1430.76 651.28 1134.71 580.167 993.645C440.063 733.152 356.978 914.64 148.54 751.945C-59.8978 589.251 15.9895 825.917 -95.0601 935.27C-206.11 1044.62 -303.448 712.884 -502.786 918.888C-702.125 1124.89 -460.72 1592.08 -249.104 1247.61C-37.4877 903.141 -34.7652 1556.17 379.37 1486.5Z" stroke="#EB6D57" stroke-opacity="0.08" stroke-width="4"/>
<path d="M442.426 1546.12C834.509 1479.89 764.542 1130.03 680.548 963.384C515.046 655.646 416.541 870.243 170.078 678.17C-76.3843 486.096 13.1575 765.742 -118.36 895.109C-249.877 1024.48 -364.7 632.484 -600.789 876.182C-836.878 1119.88 -551.732 1671.81 -300.967 1264.44C-50.2025 857.073 -47.6783 1628.91 442.426 1546.12Z" stroke="#EB6D57" stroke-opacity="0.08" stroke-width="4"/>
</svg>
