<svg width="862" height="852" viewBox="0 0 862 852" fill="none" xmlns="http://www.w3.org/2000/svg">
<path d="M593.331 -156.02C424.009 -13.8067 556.801 134.348 644.362 190.649C811.042 291.685 797.438 160.977 970.155 183.714C1142.87 206.451 1020.6 97.4979 1047.01 -1.61627C1073.42 -100.73 1239.68 55.0062 1283.83 -128.417C1327.98 -311.841 1034.64 -496.34 1029.87 -230.254C1025.1 35.831 804.982 -333.786 593.331 -156.02Z" stroke="white" stroke-opacity="0.11" stroke-width="4"/>
<path d="M664.049 -139.405C533.681 -29.8052 635.794 84.2197 703.146 127.532C831.36 205.256 820.956 104.606 953.854 122.03C1086.75 139.453 992.718 55.6118 1013.09 -20.7272C1033.46 -97.0661 1161.32 22.781 1195.39 -118.492C1229.45 -259.764 1003.82 -401.698 1000.01 -196.788C996.207 8.1211 827.008 -276.404 664.049 -139.405Z" stroke="white" stroke-opacity="0.11" stroke-width="4"/>
<path d="M527.748 -171.227C322.126 1.57806 483.258 181.449 589.526 249.784C791.819 372.413 775.369 213.671 985.031 241.2C1194.69 268.729 1046.32 136.464 1078.42 16.0741C1110.53 -104.316 1312.28 84.7478 1365.97 -138.046C1419.66 -360.841 1063.65 -584.774 1057.73 -261.604C1051.8 61.5656 784.774 -387.234 527.748 -171.227Z" stroke="white" stroke-opacity="0.11" stroke-width="4"/>
<path d="M472.783 -184.216C236.951 13.8075 421.969 220.181 543.957 298.615C776.17 439.374 757.187 257.328 997.791 289.037C1238.39 320.747 1068.04 168.974 1104.8 30.9403C1141.56 -107.093 1373.21 109.849 1434.66 -145.601C1496.12 -401.051 1087.45 -658.083 1080.87 -287.497C1074.29 83.0891 767.574 -431.746 472.783 -184.216Z" stroke="white" stroke-opacity="0.11" stroke-width="4"/>
<path d="M394.014 -202.346C114.467 32.6545 333.446 277.166 477.88 370.046C752.827 536.72 730.508 320.898 1015.5 358.271C1300.48 395.645 1098.83 215.856 1142.5 52.1652C1186.17 -111.525 1460.38 145.473 1533.41 -157.453C1606.45 -460.379 1122.58 -764.745 1114.44 -325.361C1106.31 114.023 743.449 -496.097 394.014 -202.346Z" stroke="white" stroke-opacity="0.11" stroke-width="4"/>
<path d="M302.059 -223.399C-28.6201 54.9632 229.944 344.033 400.561 453.773C725.362 650.683 699.217 395.344 1036.03 439.253C1372.84 483.162 1134.68 270.653 1186.48 76.924C1238.28 -116.805 1562.1 186.979 1648.76 -171.527C1735.42 -530.034 1163.83 -889.636 1153.73 -369.741C1143.63 150.154 715.408 -571.352 302.059 -223.399Z" stroke="white" stroke-opacity="0.11" stroke-width="4"/>
</svg>
