<svg width="38" height="40" viewBox="0 0 38 40" fill="none" xmlns="http://www.w3.org/2000/svg">
<path fill-rule="evenodd" clip-rule="evenodd" d="M19.0295 0C23.0673 0 35.4667 7.67648 36.8466 10C38.2266 12.3235 38.5346 27.1578 36.8466 30C35.1586 32.8422 22.5815 40 19.0295 40C15.4775 40 2.82885 32.7218 1.21237 30C-0.404122 27.2782 -0.404122 12.7218 1.21237 10C2.82885 7.2782 14.9917 0 19.0295 0Z" fill="#E36D1C"/>
<path d="M14.2275 27V24.94L19.0075 20.02C20.0742 18.9 20.6075 17.9667 20.6075 17.22C20.6075 16.6733 20.4342 16.2333 20.0875 15.9C19.7542 15.5667 19.3208 15.4 18.7875 15.4C17.7342 15.4 16.9542 15.9467 16.4475 17.04L14.1275 15.68C14.5675 14.72 15.2008 13.9867 16.0275 13.48C16.8542 12.9733 17.7608 12.72 18.7475 12.72C20.0142 12.72 21.1008 13.12 22.0075 13.92C22.9142 14.7067 23.3675 15.7733 23.3675 17.12C23.3675 18.5733 22.6008 20.0667 21.0675 21.6L18.3275 24.34H23.5875V27H14.2275Z" fill="white"/>
</svg>
