<svg width="38" height="40" viewBox="0 0 38 40" fill="none" xmlns="http://www.w3.org/2000/svg">
<path fill-rule="evenodd" clip-rule="evenodd" d="M19.0295 0C23.0673 0 35.4667 7.67648 36.8466 10C38.2266 12.3235 38.5346 27.1578 36.8466 30C35.1586 32.8422 22.5815 40 19.0295 40C15.4775 40 2.82885 32.7218 1.21237 30C-0.404122 27.2782 -0.404122 12.7218 1.21237 10C2.82885 7.2782 14.9917 0 19.0295 0Z" fill="#E36D1C"/>
<path d="M20.6108 18.68C21.5574 18.96 22.3241 19.4533 22.9108 20.16C23.5108 20.8533 23.8108 21.6933 23.8108 22.68C23.8108 24.12 23.3241 25.2467 22.3508 26.06C21.3908 26.8733 20.2108 27.28 18.8108 27.28C17.7174 27.28 16.7374 27.0333 15.8708 26.54C15.0174 26.0333 14.3974 25.2933 14.0108 24.32L16.3708 22.96C16.7174 24.04 17.5308 24.58 18.8108 24.58C19.5174 24.58 20.0641 24.4133 20.4508 24.08C20.8508 23.7333 21.0508 23.2667 21.0508 22.68C21.0508 22.1067 20.8508 21.6467 20.4508 21.3C20.0641 20.9533 19.5174 20.78 18.8108 20.78H18.2108L17.1508 19.18L19.9108 15.58H14.4308V13H23.2308V15.28L20.6108 18.68Z" fill="white"/>
</svg>
