<svg width="94" height="101" viewBox="0 0 94 101" fill="none" xmlns="http://www.w3.org/2000/svg">
<path fill-rule="evenodd" clip-rule="evenodd" d="M47.073 0C57.0612 0 87.7334 19.3831 91.1469 25.25C94.5605 31.1169 95.3225 68.5734 91.1469 75.75C86.9714 82.9266 55.8596 101 47.073 101C38.2864 101 6.99769 82.6225 2.99901 75.75C-0.99967 68.8775 -0.99967 32.1225 2.99901 25.25C6.99769 18.3775 37.0848 0 47.073 0Z" fill="#E36D1C"/>
<g clip-path="url(#clip0_1338_3354)">
<path d="M51.6 27C52.2 27.4 52.5 27.9 52.4 28.6C52.4 29.4 52.4 30.2 52.4 30.9C52.4 31.7 51.9 32.2 51.1 32.2C48.2 32.2 45.3 32.2 42.3 32.2C41.5 32.2 41 31.7 41 30.9C41 30.1 41 29.3 41 28.6C41 27.9 41.2 27.4 41.8 27C45 27 48.3 27 51.6 27Z" fill="white"/>
<path d="M27 55.3C27 50.3 28.7 46 31.9 42.3C32.1 42 32.1 41.9 31.9 41.7C31.6 41.4 31.2 41 30.9 40.7C30.3 40.1 30.3 39.2 30.8 38.7C31.3 38.2 32.2 38.2 32.8 38.8C33.1 39.1 33.5 39.4 33.8 39.8C34.1 40.1 34.3 40.1 34.6 39.8C36.9 38 39.6 36.8 42.5 36.1H42.6C44 35.8 44 35.8 44 34.4C44 33.5 44 33.5 44.8 33.5C46.1 33.5 47.4 33.5 48.7 33.5C49.1 33.5 49.3 33.6 49.3 34.1C49.3 34.5 49.3 35 49.3 35.4C49.3 35.7 49.4 35.9 49.7 35.9C53 36.4 56 37.7 58.7 39.8C59 40 59.2 40 59.4 39.7C59.7 39.4 60 39.1 60.4 38.7C61 38.1 61.9 38 62.4 38.6C63 39.1 62.9 40 62.3 40.6C62 40.9 61.7 41.3 61.3 41.6C61.1 41.8 61 41.9 61.3 42.2C63.8 45 65.4 48.2 66 51.9C67 58.2 65.4 63.7 61.2 68.5C58 72 54 74.2 49.3 74.8C44 75.5 39.1 74.3 34.8 71C30.7 67.9 28.2 63.8 27.2 58.7C27.1 58.4 27.1 58.1 27 57.7C27 57 27 56.1 27 55.3ZM30.6 55.3C30.8 64.3 37.8 71.3 46.7 71.3C55.8 71.3 62.8 64.1 62.7 55.2C62.6 46 55.4 39.2 46.7 39.2C37.5 39.3 30.7 46.5 30.6 55.3Z" fill="white"/>
<path d="M46.6999 47.8999C46.6999 50.1999 46.6999 52.3999 46.6999 54.6999C46.6999 55.1999 46.7999 55.2999 47.2999 55.2999C51.7999 55.2999 56.2999 55.2999 60.7999 55.2999C61.5999 55.2999 61.5999 55.2999 61.5999 55.9999C61.4999 59.4999 60.1999 62.4999 57.8999 65.0999C55.2999 67.9999 51.9999 69.6999 48.1999 70.0999C40.2999 70.7999 33.9999 65.4999 32.3999 58.9999C30.1999 50.3999 35.6999 42.0999 44.4999 40.5999C45.0999 40.4999 45.6999 40.3999 46.2999 40.3999C46.7999 40.3999 46.8999 40.5999 46.8999 40.9999C46.6999 43.2999 46.6999 45.5999 46.6999 47.8999Z" fill="white"/>
</g>
<defs>
<clipPath id="clip0_1338_3354">
<rect width="39.3" height="48" fill="white" transform="translate(27 27)"/>
</clipPath>
</defs>
</svg>
