<svg width="94" height="101" viewBox="0 0 94 101" fill="none" xmlns="http://www.w3.org/2000/svg">
<path fill-rule="evenodd" clip-rule="evenodd" d="M47.073 0C57.0612 0 87.7334 19.3831 91.1469 25.25C94.5605 31.1169 95.3225 68.5734 91.1469 75.75C86.9714 82.9266 55.8596 101 47.073 101C38.2864 101 6.99769 82.6225 2.99901 75.75C-0.99967 68.8775 -0.99967 32.1225 2.99901 25.25C6.99769 18.3775 37.0848 0 47.073 0Z" fill="#E36D1C"/>
<g clip-path="url(#clip0_1338_3355)">
<path d="M68.4999 38.7C68.2999 39.2 67.9999 39.7 67.5999 40C67.1999 40.3 66.6999 40.5 66.1999 40.5C65.6999 40.5 65.1999 40.5 64.6999 40.5C64.1999 40.5 64.0999 40.7 64.0999 41.1C64.0999 51.3 64.0999 61.4 64.0999 71.6C64.0999 73.3 62.9999 74.6 61.3999 75C61.1999 75 60.9999 75 60.7999 75.1C59.4999 75.1 58.1999 75.1 56.8999 75.1C55.0999 75.1 53.5999 73.6 53.5999 71.8C53.5999 61.7 53.5999 51.5 53.5999 41.4C53.5999 40.7 53.5999 40.7 52.8999 40.7C52.4999 40.7 52.0999 40.7 51.6999 40.7C50.5999 40.7 49.7999 40.3 49.2999 39.3C48.7999 38.3 48.9999 37.3 49.7999 36.5C50.5999 35.6 51.3999 34.7 52.2999 33.7C54.0999 31.7 55.8999 29.7 57.5999 27.7C57.6999 27.3 57.9999 27.1 58.2999 27C58.5999 27 58.8999 27 59.1999 27C59.4999 27.1 59.7999 27.3 59.9999 27.6C62.0999 30 64.1999 32.3 66.2999 34.7C67.0999 35.6 67.9999 36.3 68.3999 37.4C68.4999 37.8 68.4999 38.3 68.4999 38.7Z" fill="white"/>
<path d="M39.2 59.8999C39.2 55.9999 39.2 52.1999 39.2 48.2999C39.2 46.3999 40.7 44.8999 42.6 44.8999C43.9 44.8999 45.2 44.8999 46.5 44.8999C48.3 44.8999 49.8 46.3999 49.8 48.1999C49.8 55.9999 49.8 63.8999 49.8 71.6999C49.8 73.4999 48.3 74.9999 46.5 74.9999C45.2 74.9999 43.8 74.9999 42.5 74.9999C40.7 74.9999 39.2 73.4999 39.2 71.6999C39.2 67.7999 39.2 63.8999 39.2 59.8999Z" fill="white"/>
<path d="M35.6 63.6999C35.6 66.2999 35.6 68.8999 35.6 71.5999C35.6 73.4999 34.1 74.9999 32.2 74.9999C30.9 74.9999 29.6 74.9999 28.3 74.9999C26.5 74.9999 25 73.4999 25 71.6999C25 66.3999 25 60.9999 25 55.6999C25 53.8999 26.5 52.3999 28.3 52.3999C29.6 52.3999 31 52.3999 32.3 52.3999C34.1 52.3999 35.6 53.8999 35.6 55.6999C35.6 58.3999 35.6 61.0999 35.6 63.6999Z" fill="white"/>
</g>
<defs>
<clipPath id="clip0_1338_3355">
<rect width="43.5" height="48" fill="white" transform="translate(25 27)"/>
</clipPath>
</defs>
</svg>
