<svg width="94" height="101" viewBox="0 0 94 101" fill="none" xmlns="http://www.w3.org/2000/svg">
<path fill-rule="evenodd" clip-rule="evenodd" d="M47.073 0C57.0612 0 87.7334 19.3831 91.1469 25.25C94.5605 31.1169 95.3225 68.5734 91.1469 75.75C86.9713 82.9266 55.8596 101 47.073 101C38.2864 101 6.99769 82.6225 2.99901 75.75C-0.99967 68.8775 -0.99967 32.1225 2.99901 25.25C6.99769 18.3775 37.0848 0 47.073 0Z" fill="#E36D1C"/>
<g clip-path="url(#clip0_1338_3358)">
<path d="M62.1301 33.0956C62.1301 31.7214 62.1301 30.3374 62.1301 28.9631C62.1595 28.9631 62.1889 28.9631 62.228 28.9631C62.5413 28.9631 62.8643 28.9631 63.1775 28.9631C64.6654 28.9631 66.1533 28.9631 67.6314 28.9631C67.7293 28.9631 67.7293 28.9631 67.7293 29.0417C67.7293 30.3668 67.7293 31.6822 67.7293 33.0073C67.7293 33.2527 67.5335 33.449 67.2888 33.449C65.7128 33.449 64.1368 33.449 62.5608 33.449C62.5315 33.449 62.4923 33.449 62.4629 33.4392C62.2867 33.3901 62.1791 33.2723 62.1301 33.0956Z" fill="white"/>
<path d="M64.7536 27C64.7536 27.0196 64.7536 27.0491 64.7536 27.0687C64.7536 27.5497 64.7536 28.0307 64.7536 28.5117C64.7536 28.6098 64.7536 28.6098 64.6557 28.6098C63.8824 28.6098 63.1189 28.6098 62.3456 28.6098C62.3358 28.6098 62.326 28.6098 62.3162 28.6098C62.2672 28.6098 62.2575 28.5902 62.277 28.5509C62.3749 28.384 62.463 28.227 62.5609 28.0601C62.7077 27.7951 62.8644 27.5301 63.0112 27.265C63.0797 27.1472 63.158 27.0491 63.2853 27.0098C63.7845 27 64.2739 27 64.7536 27Z" fill="white"/>
<path d="M66.5645 27.0001C66.6917 27.0491 66.77 27.1375 66.8386 27.2553C67.0833 27.6774 67.328 28.0994 67.5629 28.5215C67.6119 28.6001 67.6021 28.6001 67.514 28.6001C66.7407 28.6001 65.9772 28.6001 65.2038 28.6001C65.106 28.6001 65.106 28.6001 65.106 28.5019C65.106 28.0209 65.106 27.5399 65.106 27.0589C65.106 27.0393 65.106 27.0099 65.106 26.9902C65.6052 27.0001 66.0848 27.0001 66.5645 27.0001Z" fill="white"/>
<path d="M62.1301 54.3276C62.1301 52.9533 62.1301 51.5693 62.1301 50.1951C62.1595 50.1951 62.1889 50.1951 62.228 50.1951C62.5413 50.1951 62.8643 50.1951 63.1775 50.1951C64.6654 50.1951 66.1533 50.1951 67.6314 50.1951C67.7293 50.1951 67.7293 50.1951 67.7293 50.2736C67.7293 51.5987 67.7293 52.9141 67.7293 54.2392C67.7293 54.4846 67.5335 54.6809 67.2888 54.6809C65.7128 54.6809 64.1368 54.6809 62.5608 54.6809C62.5315 54.6809 62.4923 54.6809 62.4629 54.6711C62.2867 54.6221 62.1791 54.5043 62.1301 54.3276Z" fill="white"/>
<path d="M64.7536 48.2319C64.7536 48.2516 64.7536 48.281 64.7536 48.3006C64.7536 48.7816 64.7536 49.2626 64.7536 49.7436C64.7536 49.8418 64.7536 49.8418 64.6557 49.8418C63.8824 49.8418 63.1189 49.8418 62.3456 49.8418C62.3358 49.8418 62.326 49.8418 62.3162 49.8418C62.2672 49.8418 62.2575 49.8221 62.277 49.7829C62.3749 49.616 62.463 49.4589 62.5609 49.2921C62.7077 49.027 62.8644 48.762 63.0112 48.497C63.0797 48.3792 63.158 48.281 63.2853 48.2417C63.7845 48.2319 64.2739 48.2319 64.7536 48.2319Z" fill="white"/>
<path d="M66.5645 48.232C66.6917 48.2811 66.77 48.3694 66.8386 48.4872C67.0833 48.9093 67.328 49.3314 67.5629 49.7535C67.6119 49.832 67.6021 49.832 67.514 49.832C66.7407 49.832 65.9772 49.832 65.2038 49.832C65.106 49.832 65.106 49.832 65.106 49.7338C65.106 49.2528 65.106 48.7719 65.106 48.2909C65.106 48.2712 65.106 48.2418 65.106 48.2222C65.6052 48.232 66.0848 48.232 66.5645 48.232Z" fill="white"/>
<path d="M62.1301 74.6469C62.1301 73.2727 62.1301 71.8886 62.1301 70.5144C62.1595 70.5144 62.1889 70.5144 62.228 70.5144C62.5413 70.5144 62.8643 70.5144 63.1775 70.5144C64.6654 70.5144 66.1533 70.5144 67.6314 70.5144C67.7293 70.5144 67.7293 70.5144 67.7293 70.5929C67.7293 71.9181 67.7293 73.2334 67.7293 74.5586C67.7293 74.804 67.5335 75.0003 67.2888 75.0003C65.7128 75.0003 64.1368 75.0003 62.5608 75.0003C62.5315 75.0003 62.4923 75.0003 62.4629 74.9905C62.2867 74.9414 62.1791 74.8236 62.1301 74.6469Z" fill="white"/>
<path d="M64.7536 68.5413C64.7536 68.5609 64.7536 68.5903 64.7536 68.61C64.7536 69.091 64.7536 69.5719 64.7536 70.0529C64.7536 70.1511 64.7536 70.1511 64.6557 70.1511C63.8824 70.1511 63.1189 70.1511 62.3456 70.1511C62.3358 70.1511 62.326 70.1511 62.3162 70.1511C62.2672 70.1511 62.2575 70.1314 62.277 70.0922C62.3749 69.9253 62.463 69.7683 62.5609 69.6014C62.7077 69.3364 62.8644 69.0713 63.0112 68.8063C63.0797 68.6885 63.158 68.5903 63.2853 68.5511C63.7845 68.5413 64.2739 68.5413 64.7536 68.5413Z" fill="white"/>
<path d="M66.5645 68.5413C66.6917 68.5904 66.77 68.6787 66.8386 68.7965C67.0833 69.2186 67.328 69.6407 67.5629 70.0628C67.6119 70.1413 67.6021 70.1413 67.514 70.1413C66.7407 70.1413 65.9772 70.1413 65.2038 70.1413C65.106 70.1413 65.106 70.1413 65.106 70.0432C65.106 69.5622 65.106 69.0812 65.106 68.6002C65.106 68.5806 65.106 68.5511 65.106 68.5315C65.6052 68.5413 66.0848 68.5413 66.5645 68.5413Z" fill="white"/>
<path d="M43.9819 44.6689C43.8546 44.9535 43.747 45.2578 43.5903 45.5425C43.3358 46.0235 43.3652 46.4554 43.6686 46.9167C44.1874 47.7118 44.5496 48.5952 44.7454 49.5277C44.8433 50.0185 45.0978 50.313 45.5579 50.4603C45.6949 50.5093 45.832 50.5584 45.969 50.6075C46.6346 50.8627 46.7717 51.1277 46.6248 51.8345C46.5759 52.0603 46.4291 52.1388 46.2627 52.1781C45.2348 52.394 44.716 53.0222 44.5398 54.0725C44.4224 54.7596 44.07 55.3977 43.6784 55.9768C43.3554 56.4578 43.3358 56.9093 43.6001 57.4001C43.6589 57.4983 43.698 57.6063 43.747 57.7142C44.0406 58.3523 43.9427 58.6664 43.3456 59.0492C43.1792 59.1572 43.0226 59.1277 42.8953 59.0394C41.985 58.4406 41.1529 58.4897 40.2622 59.1474C39.714 59.5498 39.0288 59.7461 38.3534 59.8639C37.766 59.9621 37.4234 60.2762 37.2668 60.8455C37.2375 60.9731 37.1787 61.0909 37.1298 61.2087C36.8948 61.7977 36.5131 61.9842 35.916 61.8075C35.7104 61.7486 35.6321 61.5817 35.5929 61.4149C35.3776 60.3744 34.7413 59.8738 33.7037 59.6971C32.9989 59.5793 32.3529 59.2063 31.7558 58.8038C31.3348 58.5192 30.9335 58.4504 30.4832 58.7155C30.3462 58.794 30.1896 58.8431 30.0329 58.9118C29.426 59.1768 29.1226 59.0787 28.7506 58.4995C28.6625 58.3523 28.6625 58.2247 28.731 58.0873C28.7604 58.0284 28.7702 57.9596 28.8094 57.9106C29.3379 57.0958 29.3086 56.34 28.7115 55.5351C28.271 54.9363 28.0556 54.1805 27.9088 53.4443C27.8109 52.9142 27.5368 52.6001 27.0376 52.4431C26.9006 52.4038 26.7635 52.3449 26.6265 52.2958C26.0489 52.0701 25.8532 51.6284 26.0391 51.0296C26.0979 50.8431 26.2545 50.7744 26.4013 50.7351C27.4194 50.5192 27.9284 49.9106 28.0948 48.8799C28.2122 48.1633 28.5744 47.4958 28.9953 46.8873C29.2792 46.4848 29.3282 46.0922 29.0932 45.6504C29.0247 45.5228 28.9758 45.3854 28.917 45.248C28.6038 44.5609 28.6625 44.3547 29.2792 43.9032C29.4652 43.7658 29.612 43.8247 29.7784 43.9032C31.2272 44.5118 30.9139 44.6394 32.3627 43.7854C32.9989 43.4124 33.6939 43.167 34.4183 43.0296C34.8882 42.9412 35.172 42.686 35.3189 42.2345C35.3776 42.0676 35.4657 41.9008 35.5048 41.7339C35.6125 41.2333 35.916 41.0566 36.425 41.0959C36.7676 41.1253 36.9829 41.2136 37.0613 41.5572C37.0613 41.5768 37.071 41.5866 37.0808 41.6063C37.2766 42.5682 37.8541 43.0492 38.8428 43.2063C39.577 43.3241 40.2524 43.6971 40.8789 44.1192C41.3194 44.4235 41.7403 44.4529 42.2003 44.1977C42.357 44.1093 42.5234 44.0406 42.6898 43.9719C43.1792 43.756 43.7274 44.0014 43.9329 44.502C43.9525 44.5412 43.9623 44.5903 43.9819 44.6689ZM42.2884 51.4713C42.2982 48.183 39.6455 45.4836 36.3956 45.4738C33.0381 45.4639 30.3951 48.0848 30.3756 51.4419C30.3658 54.7695 32.9989 57.459 36.2879 57.4688C39.6357 57.4688 42.2786 54.8185 42.2884 51.4713Z" fill="white"/>
<path d="M54.3874 62.2098C54.3874 59.1276 54.3776 56.0356 54.3972 52.9534C54.3972 52.4527 54.2601 52.2957 53.7609 52.3251C53.0463 52.3644 52.3317 52.3448 51.6172 52.3349C51.0298 52.3251 50.6872 52.0208 50.6774 51.5104C50.6579 50.9803 50.9515 50.6662 51.5388 50.5975C52.273 50.5092 53.0071 50.5681 53.7315 50.5583C54.3874 50.5484 54.3874 50.5484 54.3874 49.9104C54.3874 43.8736 54.3874 37.827 54.3874 31.7902C54.3874 31.6233 54.3874 31.4662 54.3874 31.2994C54.4069 30.6221 54.7495 30.2589 55.4152 30.2491C56.7464 30.2392 58.0875 30.2392 59.4188 30.2491C60.055 30.2589 60.476 30.6515 60.4564 31.1816C60.4368 31.692 60.0257 32.0552 59.4188 32.065C58.528 32.0748 57.6274 32.0846 56.7367 32.065C56.3451 32.0552 56.1885 32.1632 56.1885 32.5853C56.1983 38.3963 56.1983 44.2073 56.1885 50.0184C56.1885 50.4601 56.3451 50.5877 56.766 50.5681C57.4806 50.5484 58.1952 50.5583 58.9195 50.5583C59.0957 50.5583 59.2817 50.5583 59.4579 50.5779C60.1138 50.6466 60.5151 51.0196 60.476 51.53C60.4368 52.0503 60.0355 52.3546 59.3502 52.3546C58.4693 52.3546 57.5883 52.3644 56.7171 52.3448C56.3451 52.335 56.1983 52.4331 56.1983 52.8356C56.2081 58.6957 56.2081 64.5558 56.1983 70.4159C56.1983 70.8282 56.3647 70.9067 56.7269 70.9067C57.6079 70.8871 58.4888 70.8969 59.36 70.9067C60.0452 70.9067 60.4662 71.2601 60.4662 71.8098C60.4662 72.3497 60.0257 72.7129 59.3502 72.7227C58.0777 72.7325 56.815 72.7325 55.5424 72.7227C54.7398 72.7129 54.3972 72.3595 54.3972 71.5448C54.3874 68.4135 54.3874 65.3116 54.3874 62.2098Z" fill="white"/>
<path d="M31.9124 51.4418C31.9124 49.0074 33.8897 47.0148 36.3173 46.9952C38.7351 46.9853 40.7711 49.0172 40.7711 51.4614C40.7711 53.7289 39.0483 55.8884 36.3271 55.9178C33.8505 55.9375 31.9124 53.9252 31.9124 51.4418Z" fill="white"/>
</g>
<defs>
<clipPath id="clip0_1338_3358">
<rect width="41.7391" height="48" fill="white" transform="translate(26 27)"/>
</clipPath>
</defs>
</svg>
