<svg width="94" height="101" viewBox="0 0 94 101" fill="none" xmlns="http://www.w3.org/2000/svg">
<path fill-rule="evenodd" clip-rule="evenodd" d="M47.073 0C57.0612 0 87.7334 19.3831 91.1469 25.25C94.5605 31.1169 95.3225 68.5734 91.1469 75.75C86.9713 82.9266 55.8596 101 47.073 101C38.2864 101 6.99769 82.6225 2.99901 75.75C-0.99967 68.8775 -0.99967 32.1225 2.99901 25.25C6.99769 18.3775 37.0848 0 47.073 0Z" fill="#E36D1C"/>
<g clip-path="url(#clip0_1338_3359)">
<path d="M71.3828 64.6652C71.2296 65.8901 71 67.0384 70.4641 68.1867C68.7033 72.0145 65.7177 74.3111 61.5837 74.9235C55.9186 75.7657 50.177 71.7848 49.1052 65.6604C48.0335 59.536 52.4737 53.5647 58.6746 52.7226C64.799 51.957 70.3875 56.1676 71.3062 62.292C71.3828 62.5216 71.3828 62.8279 71.3828 63.0575C71.3828 63.5934 71.3828 64.1293 71.3828 64.6652ZM66.2536 61.3733C66.2536 60.914 66.1005 60.5312 65.7177 60.3781C65.3349 60.1484 64.9521 60.1484 64.5694 60.3781C64.3397 60.5312 64.11 60.6843 63.9569 60.914C62.4258 62.4451 60.8947 63.8996 59.4402 65.4307C59.134 65.7369 58.9043 65.8135 58.5981 65.4307C58.0622 64.8183 57.4497 64.2824 56.9139 63.67C56.378 63.1341 55.6124 63.1341 55.1531 63.5934C54.6938 64.0527 54.7703 64.8183 55.3062 65.3542C56.2249 66.2728 57.2201 67.268 58.1387 68.1867C58.7512 68.7991 59.3636 68.7991 59.9761 68.1867C61.9665 66.1963 63.9569 64.2058 65.9473 62.2154C66.1005 61.9857 66.2536 61.7561 66.2536 61.3733Z" fill="white"/>
<path d="M45.7368 27C48.11 28.0718 50.5597 29.067 52.9329 30.1388C53.086 30.2153 53.2391 30.2153 53.2391 30.3684C53.2391 30.5215 53.0095 30.5981 52.8564 30.5981C50.6363 31.5933 48.3396 32.5885 46.1195 33.5837C41.909 35.4211 37.6985 37.3349 33.4879 39.1722C33.1052 39.3254 32.7224 39.3254 32.3396 39.1722C30.043 38.1005 27.7463 37.1053 25.4497 36.11C25.2966 36.0335 25.0669 36.0335 25.0669 35.8038C25.0669 35.5742 25.2966 35.5742 25.4497 35.4976C31.6506 32.8182 37.9281 30.0622 44.2057 27.3062C44.4353 27.2297 44.7415 27.1531 44.9712 27C45.2009 27 45.5071 27 45.7368 27Z" fill="white"/>
<path d="M44.2057 60.0718C44.2057 64.2058 44.2057 68.2632 44.2057 72.3972C44.2057 73.1627 44.2057 73.1627 43.5167 72.8565C37.2392 70.1005 31.0383 67.3445 24.7608 64.5886C23.5359 64.0527 23 63.134 23 61.9091C23 54.1005 23 46.3685 23 38.5599C23 37.7177 23 37.7177 23.7656 38.024C30.3493 40.9331 36.933 43.8421 43.5933 46.7512C44.0526 46.9809 44.2057 47.2106 44.2057 47.7465C44.1292 51.8804 44.2057 55.9378 44.2057 60.0718Z" fill="white"/>
<path d="M46.5024 63.287C46.5024 62.9042 46.5024 62.4449 46.5024 62.0621C46.5024 57.3157 46.5024 52.5693 46.5024 47.8229C46.5024 47.3635 46.6556 47.0573 47.1149 46.9042C53.7752 43.9951 60.3589 41.0095 66.9426 38.1004C67.5551 37.7942 67.6316 37.8707 67.6316 38.5597C67.6316 43.0765 67.6316 47.5166 67.6316 52.0334C67.6316 52.6458 67.5551 52.7224 67.0192 52.3396C58.8278 47.5932 48.5694 52.1865 46.8087 61.4497C46.6556 62.0621 46.6556 62.6745 46.6556 63.3635C46.6556 63.2104 46.579 63.287 46.5024 63.287Z" fill="white"/>
<path d="M56.378 31.6699C56.5312 31.7465 56.6843 31.7465 56.8374 31.823C59.6699 33.0479 62.579 34.3493 65.4115 35.6508C65.5646 35.7273 65.7943 35.7273 65.7178 35.957C65.7178 36.1867 65.4881 36.1867 65.335 36.2632C62.5024 37.4881 59.6699 38.7895 56.8374 40.0144C53.2393 41.6221 49.6412 43.1532 46.1197 44.7608C45.6603 44.9905 45.2776 44.9905 44.7417 44.7608C41.9857 43.536 39.3063 42.3111 36.5503 41.0862C36.3206 41.0096 36.0144 41.0096 36.0144 40.78C36.0144 40.5503 36.3206 40.5503 36.4737 40.4737C41.756 38.1005 47.0383 35.8039 52.3206 33.4307C53.5455 32.8948 54.6938 32.3589 55.9187 31.8996C56.0718 31.823 56.2249 31.7465 56.378 31.6699Z" fill="white"/>
<path d="M46.6554 64.3589C46.732 65.2775 46.8086 66.0431 46.9617 66.8086C47.3444 68.4929 48.0334 70.024 48.9521 71.4019C49.2583 71.7847 49.1818 72.0144 48.7224 72.1675C48.11 72.3972 47.4976 72.7034 46.8851 72.933C46.6554 73.0862 46.4258 73.0862 46.4258 72.7034C46.4258 69.9474 46.4258 67.268 46.4258 64.512C46.5789 64.512 46.5789 64.512 46.6554 64.3589Z" fill="white"/>
</g>
<defs>
<clipPath id="clip0_1338_3359">
<rect width="48.3828" height="48" fill="white" transform="translate(23 27)"/>
</clipPath>
</defs>
</svg>
