<svg width="24" height="24" viewBox="0 0 24 24" fill="none" xmlns="http://www.w3.org/2000/svg">
<path d="M17.1332 17.1334H15.6665V15.6667H17.1332V17.1334Z" fill="#E38B30"/>
<path d="M12.7334 17.1334H14.2001V15.6667H12.7334V17.1334Z" fill="#E38B30"/>
<path d="M20.0668 17.1334H18.6001V15.6667H20.0668V17.1334Z" fill="#E38B30"/>
<path fill-rule="evenodd" clip-rule="evenodd" d="M5.4 9.8V6.13333C5.4 5.45921 5.53278 4.7917 5.79075 4.16889C6.04873 3.54609 6.42685 2.98019 6.90352 2.50352C7.38019 2.02684 7.94609 1.64873 8.56889 1.39075C9.1917 1.13278 9.85921 1 10.5333 1C11.2075 1 11.875 1.13278 12.4978 1.39075C13.1206 1.64873 13.6865 2.02684 14.1631 2.50352C14.6398 2.98019 15.0179 3.54609 15.2759 4.16889C15.5339 4.7917 15.6667 5.45921 15.6667 6.13333V9.8H17.8667C18.4501 9.8 19.0097 10.0318 19.4223 10.4444C19.8349 10.8569 20.0667 11.4165 20.0667 12V12.8067C20.8955 12.975 21.6407 13.4247 22.176 14.0795C22.7113 14.7344 23.0037 15.5542 23.0037 16.4C23.0037 17.2458 22.7113 18.0656 22.176 18.7205C21.6407 19.3753 20.8955 19.825 20.0667 19.9933V20.8C20.0667 21.3835 19.8349 21.9431 19.4223 22.3556C19.0097 22.7682 18.4501 23 17.8667 23H3.2C2.61652 23 2.05695 22.7682 1.64437 22.3556C1.23179 21.9431 1 21.3835 1 20.8L1 12C1 11.4165 1.23179 10.8569 1.64437 10.4444C2.05695 10.0318 2.61652 9.8 3.2 9.8H5.4ZM6.86667 6.13333C6.86667 5.16087 7.25297 4.22824 7.94061 3.54061C8.62824 2.85298 9.56087 2.46667 10.5333 2.46667C11.5058 2.46667 12.4384 2.85298 13.1261 3.54061C13.8137 4.22824 14.2 5.16087 14.2 6.13333V9.8H6.86667V6.13333ZM13.4667 14.2C12.8832 14.2 12.3236 14.4318 11.911 14.8444C11.4985 15.2569 11.2667 15.8165 11.2667 16.4C11.2667 16.9835 11.4985 17.5431 11.911 17.9556C12.3236 18.3682 12.8832 18.6 13.4667 18.6H19.3333C19.9168 18.6 20.4764 18.3682 20.889 17.9556C21.3015 17.5431 21.5333 16.9835 21.5333 16.4C21.5333 15.8165 21.3015 15.2569 20.889 14.8444C20.4764 14.4318 19.9168 14.2 19.3333 14.2H13.4667Z" fill="#E38B30"/>
</svg>
